<svg id="Layer_1" data-name="Layer 1" xmlns="http://www.w3.org/2000/svg" viewBox="0 0 298 68.87"><defs><style>.cls-1{fill:#07a46c;}</style></defs><path class="cls-1" d="M297.68,24.36c0,2.22.06,2.2,0,3.2a38.7,38.7,0,0,1-.36,4,17.48,17.48,0,0,1-4,8.84c-1.43,1.57-3.26,2.83-2.88,4a1.47,1.47,0,0,0,.42.57,46.73,46.73,0,0,1,3.14,3.87,16.62,16.62,0,0,1,1.48,2.39,20.24,20.24,0,0,1,1.88,5.47,26.14,26.14,0,0,1,.52,4,18.52,18.52,0,0,1-.06,3.76A5.72,5.72,0,0,1,297.2,67a4.16,4.16,0,0,1-3,1.86,4.46,4.46,0,0,1-3.58-2c-.83-1.25-.5-2.21-.84-5.75-.13-1.4-.31-2.54-.42-3.23a17,17,0,0,0-1.84-4.73l-.27-.42a11.51,11.51,0,0,0-4.45-3.83,5,5,0,0,0-1.17-.48,5.34,5.34,0,0,0-1.47-.16h-7c-.53,0-.95.59-.95,1.33l0,9.1V64a4.11,4.11,0,1,1-8.07,0V10.66a4,4,0,0,1,8.07,0v5.26l0,21.94a1.38,1.38,0,0,0,.3.87,1.17,1.17,0,0,0,.45.35,11.14,11.14,0,0,0,4.59.8,15.48,15.48,0,0,0,3.7-.38,11,11,0,0,0,4.93-3,13.55,13.55,0,0,0,3.11-6.19l.07-.42a22.86,22.86,0,0,0,.31-2.56c.06-.84,0-1.38,0-3.32a20.43,20.43,0,0,1,.07-3.08,4.15,4.15,0,0,1,7.79,0C297.75,21.38,297.67,21.51,297.68,24.36Z"/><path class="cls-1" d="M149.25,31.86V11.56a4,4,0,0,1,8.07,0V48.17a20.4,20.4,0,1,1-8.07-16.31Zm0,16.31v-.08a12.43,12.43,0,1,0,0,.08Z"/><path class="cls-1" d="M207,48.33a4,4,0,0,1-4.08,4H174.84a12.42,12.42,0,0,0,11.74,8.39,16.77,16.77,0,0,0,3.54-.34,17.73,17.73,0,0,0,2-.53,36.6,36.6,0,0,0,4.11-1.5c3.17-1.35,9.87-1.44,10.61.51s-3.84,5.3-6.92,7a21.66,21.66,0,0,1-7.32,2.4,43.79,43.79,0,0,1-6,.55,20.46,20.46,0,0,1,0-40.92C196.44,27.87,207,35,207,48.33Zm-32.2-4.08H198.4c-1.71-5.7-6.93-8.31-11.82-8.31A12.47,12.47,0,0,0,174.84,44.25Z"/><path class="cls-1" d="M218,57.66C211.36,42.5,222.18,28,236.38,28a20.59,20.59,0,0,1,17.77,10.19,4.09,4.09,0,0,1-1.46,5.54,4.18,4.18,0,0,1-5.55-1.46A12.36,12.36,0,0,0,236.38,36a12.49,12.49,0,0,0-11.11,18.06,10.88,10.88,0,0,0,4.75,5.1,12.59,12.59,0,0,0,16.8-4.08,4.15,4.15,0,0,1,5.62-1.23,4.06,4.06,0,0,1,1.14,5.63c-5.52,8.65-16.9,12.17-27.33,6.89A17.89,17.89,0,0,1,218,57.66Z"/><path class="cls-1" d="M40.92,48.17A20.46,20.46,0,0,1,0,48.17V11.56a4,4,0,0,1,4.08-4,4,4,0,0,1,4,4v20.3A20.49,20.49,0,0,1,40.92,48.17Zm-8.07,0a12.39,12.39,0,0,0-24.78-.08v.08a12.39,12.39,0,0,0,24.78,0Z"/><path class="cls-1" d="M66.51,48.33A20.47,20.47,0,1,1,87,68.79,20.47,20.47,0,0,1,66.51,48.33Zm8.07,0A12.4,12.4,0,1,0,87,35.94,12.44,12.44,0,0,0,74.58,48.33Z"/><path class="cls-1" d="M49.66,64.68V31.83a4,4,0,0,1,8.07,0V64.68a4,4,0,1,1-8.07,0Z"/><path class="cls-1" d="M44.52,15.79a15.47,15.47,0,0,1,7.42,8.61,22.13,22.13,0,0,1,1,10l1.6.13a45.88,45.88,0,0,0-.73-10.18L55.5,22c.63-.88,1.26-1.75,1.9-2.62l-.74-.79c-.53.49-1.06,1-1.6,1.54S53.81,21.4,53.24,22c-.91-3.21-2.42-6.21-4.93-7.79Z"/><path class="cls-1" d="M84,1.13l.1-.07A11.05,11.05,0,0,1,80.88.88,42.68,42.68,0,0,0,67.26.33c-4,.58-8.17,2-11,5a9.52,9.52,0,0,0-.71,12.2c.18.25.38.51.58.75l.67.72q0-.21.06-.48a12.8,12.8,0,0,1,1.31-3.79A14.92,14.92,0,0,1,61.07,11a21.42,21.42,0,0,1,2-1.72A35.57,35.57,0,0,1,75,3.43c1.54-.46,3.71-1,5.09-1.36,1.61-.44,2.91-.72,3.7-.88Z"/><path class="cls-1" d="M83.75,1.19c-.78.17-2,.47-3.45.82l-.25.06a52.35,52.35,0,0,0-5.37,1.78A45,45,0,0,0,64.3,9.6a23,23,0,0,0-5.62,5.69,17,17,0,0,0-1.82,3.79h0A11.67,11.67,0,0,0,68,22.33,14.2,14.2,0,0,0,77,14.45C78.54,11,78.9,7.16,81,4a9.66,9.66,0,0,1,3-2.81Z"/></svg>